<svg width="120" height="120" viewBox="0 0 120 120" fill="none" xmlns="http://www.w3.org/2000/svg">
	<style>
        path {
            fill: black;
        }
        @media ( prefers-color-scheme: dark ) {
            path {
                fill: white;
            }
        }
    </style>
<path fill-rule="evenodd" clip-rule="evenodd" d="M25.952 26.2306C22.8675 29.2084 20.7945 33.4946 20.113 38.6685C19.2231 45.4247 18.5 53.0864 18.5 60.1179C18.5 67.1494 19.2231 74.8111 20.113 81.5673C20.7945 86.7412 22.8675 91.0274 25.952 94.0051C29.0199 96.9669 33.1899 98.7357 38.295 98.7357V102.736C32.2057 102.736 27.0242 100.6 23.1738 96.8829C19.3398 93.1816 16.9276 88.0142 16.1473 82.0896C15.2459 75.2462 14.5 67.3934 14.5 60.1179C14.5 52.8424 15.2459 44.9896 16.1473 38.1461C16.9276 32.2216 19.3398 27.0541 23.1738 23.3528C27.0242 19.6356 32.2057 17.5 38.295 17.5V21.5C33.1899 21.5 29.0199 23.2688 25.952 26.2306ZM96.8262 23.3528C100.66 27.0541 103.072 32.2216 103.853 38.1461C104.754 44.9896 105.5 52.8424 105.5 60.1179C105.5 67.3934 104.754 75.2462 103.853 82.0896C103.072 88.0142 100.66 93.1816 96.8262 96.8829C92.9758 100.6 87.7943 102.736 81.705 102.736V98.7357C86.8101 98.7357 90.9801 96.9669 94.048 94.0051C97.1325 91.0274 99.2055 86.7412 99.887 81.5673C100.777 74.8111 101.5 67.1494 101.5 60.1179C101.5 53.0864 100.777 45.4247 99.887 38.6685C99.2055 33.4946 97.1325 29.2084 94.048 26.2306C90.9801 23.2688 86.8101 21.5 81.705 21.5V17.5C87.7943 17.5 92.9758 19.6356 96.8262 23.3528ZM40.0438 50.2326C40.8894 45.0511 44.8308 40.9043 50.1529 40.0517C52.7823 39.6305 56.1494 39.2762 60.0428 39.2762C64.4468 39.2762 68.1782 39.7295 70.9312 40.2207C75.4735 41.0311 79.2103 44.4162 80.045 49.2148C80.5023 51.8436 80.8843 55.4402 80.8843 60.1178C80.8843 64.9072 80.4838 68.5633 80.0121 71.2076C79.1835 75.8525 75.5939 79.2048 71.1246 80.0158C68.3995 80.5103 64.655 80.9594 60.0428 80.9594C55.9675 80.9594 52.5698 80.6088 49.9541 80.186C44.7045 79.3376 40.9119 75.2301 40.076 70.1987C39.6189 67.4475 39.2012 63.9059 39.2012 60.1178C39.2012 56.418 39.5997 52.9539 40.0438 50.2326ZM43.9916 50.8769C44.5709 47.3267 47.2338 44.5704 50.7856 44.0014C53.2363 43.6088 56.3902 43.2762 60.0428 43.2762C64.175 43.2762 67.6689 43.7018 70.2286 44.1585C73.2431 44.6964 75.5794 46.8835 76.1042 49.9003C76.5202 52.2919 76.8843 55.6587 76.8843 60.1178C76.8843 64.6835 76.5026 68.104 76.0743 70.5051C75.5545 73.4189 73.3226 75.5516 70.4104 76.0801C67.9 76.5356 64.3951 76.9594 60.0428 76.9594C56.1972 76.9594 53.0132 76.6286 50.5923 76.2373C47.1439 75.68 44.5944 72.989 44.0219 69.5431C43.5893 66.9389 43.2012 63.6254 43.2012 60.1178C43.2012 56.6925 43.5713 53.4522 43.9916 50.8769Z" fill="black"/>
</svg>
