<svg width="700" height="340" viewBox="0 0 700 340" fill="none" xmlns="http://www.w3.org/2000/svg">
<path d="M187.791 11.001C143.977 11.001 114.588 41.5643 108.867 85.003C105.361 111.617 102.486 141.978 102.486 169.977C102.486 197.975 105.361 228.337 108.867 254.951C114.588 298.389 143.977 328.953 187.791 328.953" stroke="white" stroke-width="3.6"/>
<path d="M350.647 11C394.461 11 423.849 41.5634 429.571 85.002C433.076 111.616 435.951 141.977 435.951 169.976C435.951 197.974 433.076 228.336 429.571 254.95C423.849 298.388 394.461 328.952 350.647 328.952" stroke="white" stroke-width="3.6"/>
<path d="M305.687 101.369C295.791 99.603 282.315 97.9629 266.389 97.9629C252.311 97.9629 240.149 99.2444 230.682 100.761C215.038 103.267 203.371 115.429 200.847 130.89C199.233 140.786 197.801 153.287 197.801 166.551C197.801 180.133 199.302 192.916 200.964 202.922C203.458 217.932 214.652 229.88 229.945 232.352C239.321 233.867 251.598 235.139 266.389 235.139C283.13 235.139 296.649 233.51 306.387 231.742C319.349 229.39 329.492 219.797 331.844 206.609C333.515 197.246 334.978 184.05 334.978 166.551C334.978 149.461 333.582 136.475 331.961 127.155C329.588 113.514 318.997 103.743 305.687 101.369Z" stroke="white" stroke-width="3.6"/>
<path opacity="0.2" d="M125.886 101.369C115.99 99.603 102.515 97.9629 86.5887 97.9629C72.5105 97.9629 60.3483 99.2444 50.881 100.761C35.2368 103.267 23.5701 115.429 21.0466 130.89C19.432 140.786 18 153.287 18 166.551C18 180.133 19.501 192.916 21.1637 202.922C23.6572 217.932 34.8517 229.88 50.1447 232.352C59.5204 233.867 71.7973 235.139 86.5887 235.139C103.329 235.139 116.848 233.51 126.587 231.742C139.548 229.39 149.691 219.797 152.044 206.609C153.714 197.246 155.177 184.05 155.177 166.551C155.177 149.461 153.781 136.475 152.16 127.155C149.787 113.514 139.196 103.743 125.886 101.369Z" stroke="white" stroke-width="3.6"/>
<path opacity="0.2" d="M485.886 101.369C475.99 99.603 462.515 97.9629 446.589 97.9629C432.51 97.9629 420.348 99.2444 410.881 100.761C395.237 103.267 383.57 115.429 381.047 130.89C379.432 140.786 378 153.287 378 166.551C378 180.133 379.501 192.916 381.164 202.922C383.657 217.932 394.852 229.88 410.145 232.352C419.52 233.867 431.797 235.139 446.589 235.139C463.329 235.139 476.848 233.51 486.587 231.742C499.548 229.39 509.691 219.797 512.044 206.609C513.714 197.246 515.177 184.05 515.177 166.551C515.177 149.461 513.781 136.475 512.16 127.155C509.787 113.514 499.196 103.743 485.886 101.369Z" stroke="white" stroke-width="3.6"/>
<path opacity="0.2" d="M652.886 101.369C642.99 99.603 629.515 97.9629 613.589 97.9629C599.51 97.9629 587.348 99.2444 577.881 100.761C562.237 103.267 550.57 115.429 548.047 130.89C546.432 140.786 545 153.287 545 166.551C545 180.133 546.501 192.916 548.164 202.922C550.657 217.932 561.852 229.88 577.145 232.352C586.52 233.867 598.797 235.139 613.589 235.139C630.329 235.139 643.848 233.51 653.587 231.742C666.548 229.39 676.691 219.797 679.044 206.609C680.714 197.246 682.177 184.05 682.177 166.551C682.177 149.461 680.781 136.475 679.16 127.155C676.787 113.514 666.196 103.743 652.886 101.369Z" stroke="white" stroke-width="3.6"/>
</svg>
