<svg width="300" height="74" viewBox="0 0 300 74" fill="none" xmlns="http://www.w3.org/2000/svg">
<g clip-path="url(#clip0_416_368)">
<path d="M28.2277 16.5635C22.6445 16.5635 18.8995 20.4582 18.1704 25.9936C17.7237 29.385 17.3574 33.254 17.3574 36.8218C17.3574 40.3896 17.7237 44.2586 18.1704 47.65C18.8995 53.1854 22.6445 57.0801 28.2277 57.0801M48.98 16.5635C54.5632 16.5635 58.3082 20.4582 59.0372 25.9936C59.4839 29.385 59.8503 33.254 59.8503 36.8218C59.8503 40.3896 59.4839 44.2586 59.0372 47.65C58.3082 53.1854 54.5632 57.0801 48.98 57.0801M43.8025 28.1991C42.4933 27.9656 40.7107 27.7486 38.604 27.7486C36.7417 27.7486 35.1328 27.9181 33.8805 28.1188C31.811 28.4503 30.2677 30.0591 29.9339 32.1044C29.7203 33.4134 29.5308 35.0671 29.5308 36.8217C29.5308 38.6183 29.7294 40.3094 29.9493 41.633C30.2792 43.6185 31.76 45.1991 33.7831 45.526C35.0233 45.7265 36.6473 45.8948 38.604 45.8948C40.8185 45.8948 42.6069 45.6793 43.8951 45.4455C45.6096 45.1343 46.9514 43.8653 47.2626 42.1207C47.4836 40.8822 47.6771 39.1366 47.6771 36.8217C47.6771 34.5609 47.4925 32.8431 47.278 31.6103C46.9641 29.8057 45.5631 28.5133 43.8025 28.1991Z" stroke="black" stroke-width="1.34663"/>
<path fill-rule="evenodd" clip-rule="evenodd" d="M82.1384 27.7368C83.6773 25.7863 85.8289 24.793 88.6883 24.793C91.5476 24.793 93.6985 25.7863 95.2374 27.7368C96.789 29.7034 97.621 32.6746 97.621 36.7629C97.621 40.8513 96.789 43.8225 95.2374 45.7891C93.6985 47.7396 91.5476 48.7329 88.6883 48.7329C85.8289 48.7329 83.6773 47.7396 82.1384 45.7891C80.5868 43.8225 79.7549 40.8513 79.7549 36.7629C79.7549 32.6746 80.5868 29.7034 82.1384 27.7368ZM83.4342 28.7963C84.6993 27.1008 86.4798 26.258 88.6883 26.258C90.8968 26.258 92.6766 27.1008 93.9417 28.7963C95.1925 30.4727 95.7626 32.8669 95.7626 35.8696V37.6562C95.7626 40.6589 95.1925 43.0532 93.9417 44.7296C92.6766 46.4251 90.8968 47.2679 88.6883 47.2679C86.4798 47.2679 84.6993 46.4251 83.4342 44.7296C82.1841 43.0532 81.6132 40.6589 81.6132 37.6562V35.8696C81.6132 32.8669 82.1841 30.4727 83.4342 28.7963Z" fill="black"/>
<path fill-rule="evenodd" clip-rule="evenodd" d="M103.382 25.2217H111.421C113.65 25.2217 115.252 25.8263 116.342 26.9372C117.447 28.0621 118.032 29.6061 118.032 31.6534C118.032 33.6885 117.418 35.258 116.24 36.4363C115.092 37.5852 113.514 38.1922 111.421 38.1922H105.097V48.3041H103.382V25.2217ZM111.314 26.651C112.788 26.651 114.275 27.0765 115.159 28.0203C116.03 28.9487 116.425 30.19 116.425 31.6534C116.425 33.1309 115.999 34.3909 115.088 35.359L115.084 35.3628L115.08 35.3667C114.165 36.3103 112.719 36.7629 111.314 36.7629H105.097V26.651H111.314Z" fill="black"/>
<path d="M136.517 25.2217H122.831V48.3041H136.731V46.8748H124.547V37.1917H134.944V35.7624H124.547V26.651H136.517V25.2217Z" fill="black"/>
<path d="M169.337 26.651V25.2217H184.416V26.651H177.734V48.3041H176.019V26.651H169.337Z" fill="black"/>
<path d="M190.775 25.2217H189.06V48.3041H190.775V37.1917H202.067V48.3041H203.781V25.2217H202.067V35.7624H190.775V25.2217Z" fill="black"/>
<path d="M210.206 25.2217H211.921V48.3041H210.206V25.2217Z" fill="black"/>
<path d="M268.807 24.793C266.638 24.793 264.933 25.3222 263.632 26.3238C262.386 27.2842 261.731 28.6885 261.731 30.6529C261.731 32.0454 262.04 33.0984 262.592 33.8723C263.219 34.6928 263.956 35.3078 264.803 35.7307C265.714 36.1864 266.929 36.6741 268.459 37.1919C269.728 37.5993 270.746 37.9779 271.498 38.3287C272.32 38.7003 273.012 39.2114 273.562 39.8667C274.196 40.5684 274.488 41.4617 274.488 42.48C274.488 43.9751 273.96 45.2082 272.858 46.078L272.856 46.0795C271.802 46.9057 270.359 47.2679 268.628 47.2679C267.051 47.2679 265.7 46.8653 264.639 45.9994L264.63 45.9929L264.623 45.9861C263.547 45.0556 263.053 43.7277 263.053 42.1226V42.1056L263.054 42.0886V42.0869H261.232L261.231 42.1048C261.235 44.4712 261.945 46.0818 263.24 47.0958C264.636 48.1684 266.46 48.7329 268.771 48.7329C271.213 48.7329 273.048 48.1629 274.361 47.1047L274.365 47.1012C275.638 46.0911 276.345 44.4314 276.345 41.944C276.345 40.6039 276.028 39.59 275.456 38.8401L275.45 38.8318L275.443 38.8233C274.844 37.9879 274.116 37.3801 273.258 36.9825L273.248 36.9781L273.239 36.9733C272.329 36.5181 271.102 36.0303 269.547 35.5119C268.3 35.1044 267.301 34.7394 266.557 34.4172L266.548 34.4132L266.539 34.4091C265.748 34.0401 265.073 33.5576 264.526 32.9559L264.52 32.9501L264.515 32.9441C263.909 32.247 263.625 31.3817 263.625 30.4027C263.625 29.0797 264.133 28.0013 265.18 27.2804C266.169 26.5769 267.422 26.258 268.878 26.258C270.276 26.258 271.485 26.6433 272.447 27.4624C273.419 28.2701 273.909 29.3716 273.949 30.6886H275.77C275.714 28.6606 275.059 27.261 273.904 26.356L273.899 26.3519L273.894 26.3478C272.646 25.3328 270.973 24.793 268.807 24.793Z" fill="black"/>
<path d="M143.766 28.0088V48.3041H142.051V25.2217H143.966C147.892 31.859 151.78 38.5188 155.7 45.1597V25.2217H157.415V48.3041H155.609C151.637 41.5522 147.639 34.8174 143.766 28.0088Z" fill="black"/>
<path d="M219.951 25.2217V25.2894C223.831 31.8486 227.68 38.4263 231.547 44.993V25.2217H233.262V48.3041H231.547V48.2925C227.66 41.6839 223.741 35.0945 219.951 28.4306V48.3041H218.235V25.2217H219.951Z" fill="black"/>
<path d="M241.147 27.7406C242.707 25.7907 244.906 24.793 247.843 24.793C250.37 24.793 252.327 25.4998 253.789 26.8536L253.793 26.8571C255.118 28.0669 255.88 29.8021 256.007 32.1536H254.216C254.104 30.3888 253.555 28.946 252.484 27.923C251.317 26.7864 249.74 26.258 247.843 26.258C245.573 26.258 243.744 27.0932 242.451 28.7905C241.173 30.4678 240.589 32.8645 240.589 35.8696V37.6562C240.589 40.6764 241.134 43.0782 242.33 44.7533L242.334 44.7586L242.338 44.7638C243.587 46.4473 245.398 47.2679 247.664 47.2679C249.817 47.2679 251.536 46.6568 252.647 45.2924C253.752 43.9642 254.239 42.0171 254.239 39.5857V38.2994H247.878V36.9773H256.025V48.3041H254.763L254.061 45.9024C252.761 47.7691 250.521 48.7503 247.664 48.7329C244.726 48.7329 242.555 47.7459 241.046 45.8281C239.542 43.887 238.732 40.9045 238.732 36.7629C238.732 32.6764 239.575 29.7068 241.147 27.7406Z" fill="black"/>
</g>
<defs>
<clipPath id="clip0_416_368">
<rect width="300" height="73.3167" fill="white" transform="translate(0 0.104492)"/>
</clipPath>
</defs>
</svg>
