 <svg width="1490" height="849" viewBox="0 0 1490 849" fill="none" xmlns="http://www.w3.org/2000/svg">
<g clip-path="url(#clip0_570_536)" stroke="#0E7161" stroke-width="2" >
<path d="M1.31405 223.318C-2.11375 224.281 -6.55655 225.683 -11.2376 227.569C-15.3755 229.236 -18.5736 230.829 -20.9104 232.13C-24.7721 234.279 -24.6266 237.102 -20.8238 239.232C-18.3898 240.595 -15.1362 242.245 -11.2376 243.816C-7.24564 245.425 -3.04702 246.761 0.38263 247.749C5.52727 249.232 12.3295 249.321 17.551 247.803C20.7522 246.872 24.7345 245.568 29.0821 243.816C34.0025 241.834 37.4973 240.039 39.8401 238.677C42.9584 236.863 43.1201 234.525 39.9351 232.685C37.6741 231.378 34.2255 229.642 29.082 227.569C24.0587 225.545 19.8315 224.172 16.6159 223.26C11.9088 221.925 5.92408 222.023 1.31405 223.318Z" opacity="0">
	<animate attributeName="opacity" begin="3.7" dur="5s" values="1;0;0;0;0" keyTimes="0;0.25;0.5;0.75;1" repeatCount="indefinite"/>
</path>
<path d="M195.28 152.201C190.884 153.436 185.185 155.234 179.181 157.653C173.874 159.792 169.772 161.834 166.775 163.503C161.822 166.26 162.009 169.88 166.886 172.612C170.008 174.361 174.181 176.477 179.181 178.492C184.302 180.556 189.687 182.27 194.086 183.537C200.684 185.438 209.409 185.553 216.106 183.605C220.212 182.411 225.32 180.739 230.896 178.492C237.207 175.949 241.689 173.648 244.694 171.9C248.694 169.574 248.901 166.576 244.816 164.215C241.916 162.539 237.493 160.312 230.896 157.653C224.453 155.057 219.031 153.296 214.907 152.127C208.869 150.415 201.193 150.54 195.28 152.201Z" opacity="0">
	<animate attributeName="opacity" begin="7.2" dur="5s" values="1;0;0;0;0" keyTimes="0;0.25;0.5;0.75;1" repeatCount="indefinite"/>
</path>
<path d="M448.298 113.875C444.721 114.88 440.085 116.343 435.2 118.311C430.883 120.051 427.546 121.712 425.107 123.07C421.078 125.313 421.229 128.258 425.197 130.481C427.737 131.903 431.132 133.625 435.2 135.265C439.366 136.943 443.747 138.338 447.326 139.369C452.694 140.916 459.792 141.009 465.241 139.424C468.581 138.453 472.737 137.093 477.273 135.265C482.407 133.196 486.054 131.324 488.499 129.902C491.753 128.009 491.922 125.57 488.598 123.649C486.239 122.285 482.64 120.474 477.273 118.311C472.031 116.199 467.62 114.766 464.265 113.815C459.353 112.422 453.108 112.524 448.298 113.875Z" opacity="0">
	<animate attributeName="opacity" begin="0.9" dur="5s" values="1;0;0;0;0" keyTimes="0;0.25;0.5;0.75;1" repeatCount="indefinite"/>
</path>
<path d="M405.233 77.6492C402.886 78.3087 399.844 79.2686 396.638 80.5603C393.805 81.7021 391.615 82.7925 390.014 83.6834C387.37 85.1555 387.47 87.0881 390.074 88.5468C391.74 89.4804 393.968 90.6105 396.638 91.6863C399.372 92.7878 402.247 93.7029 404.595 94.3796C408.118 95.3947 412.776 95.4559 416.352 94.416C418.544 93.7785 421.271 92.8859 424.248 91.6862C427.618 90.3285 430.011 89.0998 431.615 88.1666C433.751 86.9246 433.861 85.3239 431.68 84.0634C430.132 83.1686 427.77 81.9796 424.248 80.5603C420.808 79.1742 417.914 78.2341 415.712 77.6097C412.488 76.6958 408.39 76.7623 405.233 77.6492Z" opacity="0">
	<animate attributeName="opacity" begin="5.3" dur="5s" values="1;0;0;0;0" keyTimes="0;0.25;0.5;0.75;1" repeatCount="indefinite"/>
</path>
<path d="M650.126 4.04076C646.549 5.04566 641.913 6.50839 637.029 8.47668C632.711 10.2166 629.374 11.8781 626.935 13.2357C622.906 15.4789 623.057 18.4238 627.026 20.6466C629.565 22.0692 632.96 23.7912 637.029 25.4305C641.194 27.1091 645.575 28.5035 649.154 29.5347C654.522 31.0815 661.62 31.1747 667.069 29.5901C670.409 28.6187 674.565 27.2586 679.101 25.4305C684.236 23.3615 687.882 21.4893 690.327 20.0673C693.581 18.1747 693.75 15.7355 690.426 13.8148C688.067 12.4512 684.468 10.6395 679.101 8.47672C673.859 6.3645 669.448 4.93203 666.093 3.98059C661.181 2.58789 654.936 2.68931 650.126 4.04076Z" opacity="0">
	<animate attributeName="opacity" begin="8.4" dur="5s" values="1;0;0;0;0" keyTimes="0;0.25;0.5;0.75;1" repeatCount="indefinite"/>
</path>
<path d="M39.0484 433.94C36.4403 434.672 33.0599 435.739 29.4982 437.174C26.3498 438.443 23.9165 439.654 22.1385 440.644C19.2002 442.28 19.3109 444.427 22.2044 446.048C24.0563 447.085 26.5319 448.341 29.4982 449.536C32.5356 450.76 35.7302 451.777 38.3397 452.529C42.2541 453.657 47.4297 453.725 51.4025 452.569C53.8383 451.861 56.8683 450.869 60.1762 449.536C63.92 448.028 66.5791 446.662 68.3617 445.626C70.7343 444.246 70.8573 442.467 68.434 441.066C66.7136 440.072 64.0897 438.751 60.1762 437.174C56.3541 435.634 53.1377 434.589 50.6911 433.896C47.1096 432.88 42.556 432.954 39.0484 433.94Z" opacity="0">
	<animate attributeName="opacity" begin="1.1" dur="5s" values="1;0;0;0;0" keyTimes="0;0.25;0.5;0.75;1" repeatCount="indefinite"/>
</path>
<path d="M67.1772 392.513C63.414 393.57 58.5366 395.109 53.3977 397.179C48.855 399.01 45.344 400.758 42.7786 402.186C38.5391 404.546 38.6988 407.645 42.8737 409.983C45.5457 411.48 49.1176 413.292 53.3976 415.016C57.7801 416.782 62.3895 418.249 66.1546 419.334C71.8026 420.962 79.2703 421.06 85.0025 419.393C88.5169 418.371 92.8888 416.94 97.6616 415.016C103.063 412.84 106.9 410.87 109.472 409.374C112.895 407.383 113.073 404.816 109.576 402.796C107.094 401.361 103.308 399.455 97.6616 397.179C92.1469 394.957 87.5061 393.45 83.976 392.449C78.8084 390.984 72.2382 391.091 67.1772 392.513Z" opacity="0">
	<animate attributeName="opacity" begin="6.8" dur="5s" values="1;0;0;0;0" keyTimes="0;0.25;0.5;0.75;1" repeatCount="indefinite"/>
</path>
<path d="M146.457 299.369C142.061 300.604 136.362 302.402 130.358 304.821C125.051 306.96 120.949 309.002 117.952 310.671C112.999 313.428 113.185 317.048 118.063 319.78C121.185 321.529 125.358 323.646 130.358 325.66C135.478 327.724 140.864 329.438 145.262 330.705C151.861 332.607 160.586 332.721 167.283 330.773C171.389 329.579 176.496 327.907 182.073 325.66C188.383 323.117 192.866 320.816 195.871 319.068C199.87 316.742 200.078 313.744 195.993 311.383C193.093 309.707 188.67 307.48 182.072 304.821C175.63 302.225 170.208 300.464 166.083 299.295C160.046 297.583 152.37 297.708 146.457 299.369Z" opacity="0">
	<animate attributeName="opacity" begin="2.5" dur="5s" values="1;0;0;0;0" keyTimes="0;0.25;0.5;0.75;1" repeatCount="indefinite"/>
</path>
<path d="M448.74 233.738C445.238 234.722 440.698 236.154 435.916 238.082C431.688 239.785 428.42 241.412 426.032 242.742C422.087 244.938 422.235 247.822 426.121 249.998C428.608 251.391 431.932 253.077 435.915 254.682C439.994 256.326 444.284 257.691 447.788 258.701C453.045 260.216 459.995 260.307 465.33 258.755C468.601 257.804 472.67 256.472 477.112 254.682C482.139 252.657 485.71 250.823 488.104 249.431C491.29 247.578 491.455 245.189 488.201 243.309C485.89 241.973 482.367 240.199 477.112 238.082C471.979 236.014 467.66 234.611 464.375 233.679C459.565 232.316 453.45 232.415 448.74 233.738Z" opacity="0">
	<animate attributeName="opacity" begin="9.6" dur="5s" values="1;0;0;0;0" keyTimes="0;0.25;0.5;0.75;1" repeatCount="indefinite"/>
</path>
<path d="M466.278 171.121C461.845 172.366 456.098 174.179 450.043 176.619C444.691 178.776 440.554 180.836 437.532 182.518C432.537 185.299 432.725 188.95 437.644 191.705C440.792 193.468 445 195.603 450.043 197.635C455.207 199.716 460.637 201.444 465.074 202.722C471.728 204.64 480.527 204.755 487.281 202.791C491.421 201.587 496.572 199.901 502.196 197.635C508.56 195.07 513.081 192.75 516.111 190.987C520.144 188.641 520.354 185.617 516.234 183.236C513.309 181.546 508.849 179.3 502.196 176.619C495.698 174.001 490.23 172.225 486.071 171.046C479.983 169.32 472.241 169.445 466.278 171.121Z" opacity="0">
	<animate attributeName="opacity" begin="4.2" dur="5s" values="1;0;0;0;0" keyTimes="0;0.25;0.5;0.75;1" repeatCount="indefinite"/>
</path>
<path d="M666.734 169.05C662.263 170.306 656.468 172.134 650.362 174.595C644.965 176.769 640.793 178.846 637.745 180.543C632.708 183.347 632.898 187.028 637.858 189.807C641.033 191.585 645.277 193.738 650.362 195.787C655.569 197.885 661.045 199.628 665.519 200.917C672.229 202.851 681.102 202.967 687.912 200.986C692.088 199.772 697.282 198.072 702.953 195.787C709.371 193.201 713.929 190.86 716.985 189.083C721.052 186.717 721.263 183.668 717.109 181.267C714.16 179.563 709.662 177.298 702.953 174.595C696.401 171.954 690.887 170.164 686.693 168.974C680.553 167.234 672.747 167.36 666.734 169.05Z" opacity="0">
	<animate attributeName="opacity" begin="0.4" dur="5s" values="1;0;0;0;0" keyTimes="0;0.25;0.5;0.75;1" repeatCount="indefinite"/>
</path>
<path d="M902.586 86.6717C899.606 87.5091 895.742 88.728 891.672 90.3683C888.074 91.8182 885.293 93.2028 883.261 94.3341C879.903 96.2034 880.029 98.6576 883.336 100.51C885.453 101.695 888.282 103.13 891.672 104.496C895.143 105.895 898.794 107.057 901.776 107.917C906.25 109.206 912.165 109.283 916.705 107.963C919.489 107.153 922.952 106.02 926.732 104.496C931.011 102.772 934.05 101.212 936.087 100.027C938.799 98.45 938.939 96.4173 936.17 94.8167C934.204 93.6804 931.205 92.1706 926.732 90.3683C922.364 88.6081 918.688 87.4144 915.892 86.6215C911.799 85.4609 906.595 85.5455 902.586 86.6717Z" opacity="0">
	<animate attributeName="opacity" begin="5.9" dur="5s" values="1;0;0;0;0" keyTimes="0;0.25;0.5;0.75;1" repeatCount="indefinite"/>
</path>
<path d="M63.5246 618.654C60.2459 619.576 55.9962 620.916 51.5187 622.721C47.5607 624.316 44.5017 625.839 42.2664 627.083C38.5727 629.139 38.7118 631.839 42.3493 633.876C44.6774 635.18 47.7896 636.759 51.5187 638.262C55.3371 639.8 59.3532 641.079 62.6337 642.024C67.5547 643.442 74.0612 643.527 79.0556 642.075C82.1176 641.184 85.9268 639.937 90.0853 638.262C94.7918 636.365 98.1346 634.649 100.376 633.345C103.358 631.611 103.513 629.375 100.467 627.614C98.3038 626.364 95.0051 624.703 90.0853 622.721C85.2804 620.785 81.237 619.471 78.1612 618.599C73.6588 617.323 67.9342 617.416 63.5246 618.654Z" opacity="0">
	<animate attributeName="opacity" begin="8.0" dur="5s" values="1;0;0;0;0" keyTimes="0;0.25;0.5;0.75;1" repeatCount="indefinite"/>
</path>
<path d="M229.978 521.071C224.235 522.684 216.791 525.033 208.949 528.193C202.016 530.986 196.659 533.654 192.743 535.834C186.274 539.435 186.517 544.163 192.889 547.732C196.966 550.016 202.417 552.781 208.949 555.413C215.637 558.108 222.671 560.347 228.417 562.003C237.036 564.486 248.433 564.636 257.18 562.092C262.544 560.532 269.215 558.348 276.499 555.413C284.743 552.091 290.598 549.085 294.523 546.802C299.747 543.764 300.018 539.847 294.682 536.763C290.894 534.574 285.116 531.665 276.499 528.193C268.083 524.802 261.001 522.502 255.614 520.974C247.728 518.738 237.701 518.901 229.978 521.071Z" opacity="0">
	<animate attributeName="opacity" begin="1.7" dur="5s" values="1;0;0;0;0" keyTimes="0;0.25;0.5;0.75;1" repeatCount="indefinite"/>
</path>
<path d="M342.126 491.662C338.214 492.761 333.143 494.361 327.801 496.514C323.078 498.417 319.428 500.234 316.761 501.719C312.354 504.172 312.52 507.393 316.86 509.825C319.638 511.381 323.351 513.264 327.8 515.057C332.357 516.893 337.148 518.418 341.063 519.546C346.934 521.238 354.698 521.34 360.657 519.607C364.311 518.544 368.856 517.056 373.818 515.057C379.433 512.794 383.422 510.746 386.096 509.191C389.655 507.121 389.839 504.453 386.204 502.352C383.624 500.861 379.688 498.879 373.817 496.514C368.084 494.204 363.26 492.637 359.59 491.596C354.218 490.073 347.387 490.184 342.126 491.662Z" opacity="0">
	<animate attributeName="opacity" begin="4.6" dur="5s" values="1;0;0;0;0" keyTimes="0;0.25;0.5;0.75;1" repeatCount="indefinite"/>
</path>
<path d="M610.597 343.042C607.355 343.953 603.154 345.278 598.727 347.062C594.814 348.639 591.79 350.144 589.58 351.375C585.928 353.408 586.066 356.077 589.662 358.091C591.964 359.38 595.041 360.941 598.727 362.426C602.502 363.948 606.473 365.211 609.716 366.146C614.581 367.548 621.014 367.632 625.951 366.196C628.979 365.316 632.744 364.083 636.856 362.426C641.509 360.551 644.814 358.855 647.029 357.566C649.978 355.851 650.131 353.64 647.119 351.9C644.981 350.664 641.72 349.022 636.856 347.062C632.105 345.148 628.108 343.85 625.067 342.987C620.616 341.725 614.956 341.817 610.597 343.042Z" opacity="0">
	<animate attributeName="opacity" begin="7.5" dur="5s" values="1;0;0;0;0" keyTimes="0;0.25;0.5;0.75;1" repeatCount="indefinite"/>
</path>
<path d="M735.422 253.294C731.287 254.456 725.926 256.147 720.278 258.423C715.286 260.435 711.427 262.356 708.608 263.926C703.949 266.519 704.124 269.925 708.712 272.495C711.649 274.139 715.575 276.131 720.278 278.026C725.095 279.967 730.161 281.579 734.298 282.771C740.506 284.56 748.713 284.668 755.012 282.836C758.875 281.712 763.68 280.14 768.925 278.026C774.861 275.634 779.078 273.469 781.905 271.825C785.667 269.636 785.862 266.816 782.019 264.595C779.291 263.019 775.131 260.924 768.925 258.423C762.864 255.981 757.764 254.325 753.884 253.225C748.205 251.614 740.984 251.732 735.422 253.294Z" opacity="0">
	<animate attributeName="opacity" begin="3.2" dur="5s" values="1;0;0;0;0" keyTimes="0;0.25;0.5;0.75;1" repeatCount="indefinite"/>
</path>
<path d="M988.128 262.784C982.609 264.335 975.456 266.592 967.919 269.629C961.256 272.314 956.107 274.878 952.344 276.972C946.127 280.434 946.361 284.978 952.484 288.408C956.403 290.603 961.642 293.26 967.919 295.789C974.346 298.379 981.107 300.531 986.629 302.122C994.912 304.509 1005.86 304.653 1014.27 302.208C1019.43 300.709 1025.84 298.61 1032.84 295.789C1040.76 292.597 1046.39 289.708 1050.16 287.514C1055.18 284.593 1055.44 280.83 1050.31 277.866C1046.67 275.762 1041.12 272.966 1032.84 269.629C1024.75 266.37 1017.94 264.16 1012.77 262.691C1005.19 260.542 995.551 260.699 988.128 262.784Z" opacity="0">
	<animate attributeName="opacity" begin="9.1" dur="5s" values="1;0;0;0;0" keyTimes="0;0.25;0.5;0.75;1" repeatCount="indefinite"/>
</path>
<path d="M1078.1 237.504C1075.64 238.195 1072.45 239.201 1069.1 240.554C1066.13 241.75 1063.83 242.893 1062.16 243.826C1059.39 245.368 1059.49 247.393 1062.22 248.921C1063.97 249.899 1066.3 251.083 1069.1 252.21C1071.96 253.364 1074.97 254.323 1077.43 255.032C1081.12 256.095 1086 256.159 1089.75 255.07C1092.05 254.402 1094.9 253.467 1098.02 252.21C1101.55 250.788 1104.06 249.5 1105.74 248.523C1107.98 247.222 1108.09 245.545 1105.81 244.224C1104.19 243.287 1101.71 242.041 1098.02 240.554C1094.42 239.102 1091.38 238.117 1089.08 237.463C1085.7 236.506 1081.41 236.575 1078.1 237.504Z" opacity="0">
	<animate attributeName="opacity" begin="2.0" dur="5s" values="1;0;0;0;0" keyTimes="0;0.25;0.5;0.75;1" repeatCount="indefinite"/>
</path>
<path d="M261.712 678.635C258.284 679.598 253.841 681 249.16 682.886C245.022 684.554 241.824 686.146 239.487 687.447C235.625 689.597 235.771 692.419 239.574 694.549C242.008 695.912 245.261 697.563 249.16 699.134C253.152 700.742 257.35 702.079 260.78 703.067C265.925 704.549 272.727 704.639 277.948 703.12C281.15 702.189 285.132 700.886 289.48 699.134C294.4 697.151 297.895 695.357 300.238 693.994C303.356 692.18 303.518 689.843 300.333 688.002C298.072 686.695 294.623 684.959 289.479 682.886C284.456 680.862 280.229 679.489 277.013 678.578C272.306 677.243 266.322 677.34 261.712 678.635Z" opacity="0">
	<animate attributeName="opacity" begin="-6.4" dur="5s" values="1;0;0;0;0" keyTimes="0;0.25;0.5;0.75;1" repeatCount="indefinite"/>
</path>
<path d="M447.29 616.758C444.644 617.501 441.216 618.583 437.603 620.039C434.41 621.326 431.942 622.555 430.138 623.559C427.158 625.218 427.27 627.396 430.205 629.04C432.083 630.092 434.594 631.365 437.603 632.578C440.684 633.819 443.924 634.85 446.571 635.613C450.541 636.757 455.791 636.826 459.82 635.654C462.291 634.936 465.364 633.93 468.719 632.578C472.517 631.048 475.214 629.663 477.022 628.611C479.428 627.211 479.553 625.407 477.095 623.987C475.35 622.978 472.689 621.639 468.719 620.039C464.843 618.477 461.58 617.417 459.099 616.714C455.466 615.684 450.847 615.759 447.29 616.758Z" opacity="0">
	<animate attributeName="opacity" begin="-0.6" dur="5s" values="1;0;0;0;0" keyTimes="0;0.25;0.5;0.75;1" repeatCount="indefinite"/>
</path>
<path d="M575.306 533.126C571.916 534.078 567.521 535.465 562.891 537.331C558.798 538.98 555.635 540.555 553.323 541.842C549.504 543.968 549.647 546.76 553.409 548.867C555.816 550.215 559.035 551.847 562.891 553.401C566.839 554.993 570.992 556.314 574.385 557.292C579.474 558.758 586.202 558.846 591.367 557.344C594.533 556.423 598.472 555.134 602.772 553.401C607.639 551.44 611.096 549.665 613.413 548.317C616.498 546.523 616.658 544.211 613.507 542.391C611.271 541.098 607.86 539.381 602.772 537.331C597.804 535.328 593.622 533.971 590.442 533.069C585.786 531.748 579.866 531.845 575.306 533.126Z" opacity="0">
	<animate attributeName="opacity" begin="-9.7" dur="5s" values="1;0;0;0;0" keyTimes="0;0.25;0.5;0.75;1" repeatCount="indefinite"/>
</path>
<path d="M987.095 332.915C984.524 333.637 981.192 334.689 977.681 336.103C974.578 337.354 972.179 338.548 970.427 339.524C967.531 341.136 967.64 343.253 970.492 344.851C972.317 345.873 974.757 347.111 977.681 348.289C980.675 349.496 983.824 350.498 986.397 351.239C990.255 352.351 995.357 352.418 999.273 351.279C1001.67 350.581 1004.66 349.603 1007.92 348.289C1011.61 346.802 1014.23 345.456 1015.99 344.434C1018.33 343.074 1018.45 341.321 1016.06 339.94C1014.37 338.96 1011.78 337.658 1007.92 336.104C1004.15 334.585 1000.98 333.556 998.572 332.872C995.041 331.871 990.553 331.944 987.095 332.915Z" opacity="0">
	<animate attributeName="opacity" begin="-7.8" dur="5s" values="1;0;0;0;0" keyTimes="0;0.25;0.5;0.75;1" repeatCount="indefinite"/>
</path>
<path d="M1312.9 225.348C1309.59 226.28 1305.29 227.636 1300.76 229.461C1296.76 231.074 1293.66 232.614 1291.4 233.873C1287.67 235.952 1287.81 238.683 1291.49 240.743C1293.84 242.062 1296.99 243.659 1300.76 245.178C1304.62 246.735 1308.68 248.027 1312 248.983C1316.98 250.417 1323.56 250.504 1328.61 249.035C1331.71 248.134 1335.56 246.873 1339.77 245.178C1344.53 243.26 1347.91 241.525 1350.17 240.206C1353.19 238.452 1353.35 236.19 1350.27 234.41C1348.08 233.145 1344.74 231.466 1339.77 229.461C1334.91 227.503 1330.82 226.175 1327.71 225.293C1323.15 224.001 1317.36 224.095 1312.9 225.348Z" opacity="0">
	<animate attributeName="opacity" begin="-2.9" dur="5s" values="1;0;0;0;0" keyTimes="0;0.25;0.5;0.75;1" repeatCount="indefinite"/>
</path>
<path d="M437.995 717.27C434.27 718.316 429.44 719.84 424.352 721.89C419.855 723.703 416.378 725.434 413.838 726.848C409.641 729.184 409.799 732.252 413.933 734.567C416.578 736.049 420.115 737.843 424.352 739.551C428.691 741.299 433.255 742.752 436.983 743.826C442.575 745.437 449.969 745.534 455.644 743.883C459.124 742.872 463.452 741.455 468.178 739.551C473.526 737.395 477.325 735.445 479.872 733.964C483.261 731.992 483.437 729.452 479.975 727.451C477.517 726.03 473.769 724.143 468.178 721.89C462.718 719.69 458.123 718.198 454.628 717.207C449.511 715.756 443.006 715.862 437.995 717.27Z" opacity="0">
	<animate attributeName="opacity" begin="-3.3" dur="5s" values="1;0;0;0;0" keyTimes="0;0.25;0.5;0.75;1" repeatCount="indefinite"/>
</path>
<path d="M696.672 615.023C692.387 616.226 686.833 617.979 680.982 620.337C675.81 622.421 671.812 624.411 668.891 626.037C664.064 628.725 664.246 632.252 668.999 634.915C672.042 636.619 676.109 638.682 680.982 640.646C685.972 642.657 691.22 644.327 695.507 645.562C701.938 647.415 710.441 647.527 716.968 645.629C720.969 644.465 725.947 642.836 731.382 640.646C737.532 638.167 741.901 635.925 744.829 634.221C748.727 631.954 748.929 629.032 744.948 626.731C742.122 625.098 737.811 622.927 731.382 620.337C725.102 617.806 719.818 616.09 715.799 614.951C709.915 613.282 702.434 613.404 696.672 615.023Z" opacity="0">
	<animate attributeName="opacity" begin="-5.1" dur="5s" values="1;0;0;0;0" keyTimes="0;0.25;0.5;0.75;1" repeatCount="indefinite"/>
</path>
<path d="M905.316 565.889C902.634 566.643 899.157 567.74 895.493 569.216C892.255 570.521 889.752 571.767 887.923 572.786C884.901 574.468 885.015 576.677 887.991 578.344C889.896 579.411 892.442 580.702 895.493 581.932C898.617 583.191 901.903 584.236 904.587 585.01C908.613 586.17 913.937 586.24 918.023 585.051C920.529 584.323 923.645 583.303 927.048 581.932C930.898 580.38 933.633 578.976 935.467 577.909C937.907 576.49 938.034 574.66 935.541 573.22C933.772 572.197 931.073 570.838 927.048 569.216C923.116 567.632 919.808 566.558 917.292 565.844C913.608 564.8 908.924 564.876 905.316 565.889Z" opacity="0">
	<animate attributeName="opacity" begin="-8.8" dur="5s" values="1;0;0;0;0" keyTimes="0;0.25;0.5;0.75;1" repeatCount="indefinite"/>
</path>
<path d="M1206.77 481.927C1202.67 483.078 1197.36 484.754 1191.76 487.01C1186.82 489.003 1182.99 490.907 1180.2 492.463C1175.58 495.033 1175.75 498.408 1180.3 500.954C1183.21 502.584 1187.1 504.558 1191.76 506.436C1196.54 508.359 1201.56 509.957 1205.66 511.139C1211.81 512.911 1219.94 513.018 1226.18 511.202C1230.01 510.089 1234.77 508.531 1239.97 506.436C1245.85 504.065 1250.03 501.92 1252.83 500.291C1256.56 498.122 1256.76 495.327 1252.95 493.126C1250.24 491.564 1246.12 489.488 1239.97 487.01C1233.97 484.59 1228.91 482.948 1225.07 481.858C1219.44 480.262 1212.28 480.378 1206.77 481.927Z" opacity="0">
	<animate attributeName="opacity" begin="-1.7" dur="5s" values="1;0;0;0;0" keyTimes="0;0.25;0.5;0.75;1" repeatCount="indefinite"/>
</path>
<path d="M1308.61 361.913C1305.7 362.729 1301.94 363.918 1297.97 365.517C1294.46 366.931 1291.75 368.281 1289.77 369.384C1286.49 371.206 1286.62 373.599 1289.84 375.405C1291.9 376.561 1294.66 377.96 1297.97 379.292C1301.35 380.656 1304.91 381.789 1307.82 382.627C1312.18 383.883 1317.95 383.959 1322.37 382.672C1325.09 381.882 1328.47 380.777 1332.15 379.292C1336.32 377.611 1339.29 376.09 1341.27 374.934C1343.92 373.397 1344.05 371.415 1341.35 369.854C1339.44 368.746 1336.51 367.274 1332.15 365.517C1327.89 363.801 1324.31 362.637 1321.58 361.864C1317.59 360.732 1312.52 360.815 1308.61 361.913Z" opacity="0">
	<animate attributeName="opacity" begin="-4.9" dur="5s" values="1;0;0;0;0" keyTimes="0;0.25;0.5;0.75;1" repeatCount="indefinite"/>
</path>
<path d="M1449.7 377.735C1446.05 378.76 1441.31 380.254 1436.33 382.263C1431.92 384.039 1428.51 385.735 1426.02 387.121C1421.91 389.411 1422.06 392.417 1426.11 394.686C1428.71 396.139 1432.17 397.897 1436.33 399.57C1440.58 401.284 1445.05 402.707 1448.7 403.76C1454.18 405.339 1461.43 405.434 1466.99 403.816C1470.4 402.825 1474.64 401.436 1479.28 399.57C1484.52 397.458 1488.24 395.547 1490.74 394.095C1494.06 392.163 1494.23 389.673 1490.84 387.712C1488.43 386.32 1484.75 384.471 1479.28 382.263C1473.92 380.107 1469.42 378.644 1466 377.673C1460.98 376.251 1454.61 376.355 1449.7 377.735Z" opacity="0">
	<animate attributeName="opacity" begin="-6.0" dur="5s" values="1;0;0;0;0" keyTimes="0;0.25;0.5;0.75;1" repeatCount="indefinite"/>
</path>
<path d="M715.761 810.674C713.041 811.438 709.515 812.55 705.801 814.047C702.518 815.37 699.98 816.634 698.126 817.666C695.062 819.372 695.177 821.611 698.195 823.301C700.126 824.383 702.708 825.693 705.801 826.939C708.969 828.216 712.3 829.276 715.021 830.06C719.104 831.236 724.501 831.307 728.644 830.102C731.184 829.363 734.344 828.329 737.794 826.939C741.698 825.366 744.471 823.942 746.33 822.861C748.804 821.422 748.933 819.567 746.406 818.106C744.611 817.069 741.875 815.692 737.794 814.047C733.808 812.441 730.454 811.352 727.902 810.628C724.167 809.569 719.419 809.646 715.761 810.674Z" opacity="0">
	<animate attributeName="opacity" begin="-0.2" dur="5s" values="1;0;0;0;0" keyTimes="0;0.25;0.5;0.75;1" repeatCount="indefinite"/>
</path>
<path d="M766.689 802.854C764.454 803.482 761.556 804.396 758.503 805.626C755.805 806.714 753.719 807.752 752.195 808.601C749.676 810.003 749.771 811.843 752.251 813.233C753.839 814.122 755.961 815.198 758.503 816.223C761.107 817.272 763.845 818.143 766.082 818.788C769.437 819.755 773.873 819.813 777.278 818.822C779.366 818.215 781.963 817.365 784.799 816.223C788.008 814.93 790.287 813.759 791.815 812.871C793.848 811.688 793.954 810.163 791.877 808.963C790.402 808.111 788.153 806.978 784.799 805.626C781.523 804.306 778.766 803.411 776.669 802.816C773.599 801.946 769.696 802.009 766.689 802.854Z" opacity="0">
	<animate attributeName="opacity" begin="-7.0" dur="5s" values="1;0;0;0;0" keyTimes="0;0.25;0.5;0.75;1" repeatCount="indefinite"/>
</path>
<path d="M1115.34 667.253C1111.58 668.31 1106.7 669.849 1101.56 671.92C1097.02 673.75 1093.51 675.498 1090.94 676.927C1086.7 679.287 1086.86 682.385 1091.04 684.723C1093.71 686.22 1097.28 688.032 1101.56 689.757C1105.95 691.523 1110.55 692.99 1114.32 694.074C1119.97 695.702 1127.44 695.8 1133.17 694.133C1136.68 693.111 1141.05 691.68 1145.83 689.756C1151.23 687.58 1155.07 685.61 1157.64 684.114C1161.06 682.123 1161.24 679.557 1157.74 677.536C1155.26 676.101 1151.47 674.195 1145.83 671.92C1140.31 669.698 1135.67 668.19 1132.14 667.189C1126.97 665.724 1120.4 665.831 1115.34 667.253Z" opacity="0">
	<animate attributeName="opacity" begin="-9.4" dur="5s" values="1;0;0;0;0" keyTimes="0;0.25;0.5;0.75;1" repeatCount="indefinite"/>
</path>
<path d="M1258.06 651.17C1254.67 652.123 1250.28 653.509 1245.65 655.375C1241.56 657.024 1238.39 658.599 1236.08 659.886C1232.26 662.012 1232.41 664.804 1236.17 666.911C1238.57 668.26 1241.79 669.892 1245.65 671.446C1249.6 673.037 1253.75 674.359 1257.14 675.336C1262.23 676.803 1268.96 676.891 1274.12 675.389C1277.29 674.468 1281.23 673.179 1285.53 671.446C1290.4 669.485 1293.85 667.71 1296.17 666.362C1299.26 664.568 1299.42 662.256 1296.27 660.435C1294.03 659.142 1290.62 657.425 1285.53 655.375C1280.56 653.373 1276.38 652.015 1273.2 651.113C1268.54 649.793 1262.62 649.889 1258.06 651.17Z" opacity="0">
	<animate attributeName="opacity" begin="-2.3" dur="5s" values="1;0;0;0;0" keyTimes="0;0.25;0.5;0.75;1" repeatCount="indefinite"/>
</path>
<path d="M1424.51 495.547C1420.86 496.573 1416.13 498.066 1411.14 500.075C1406.74 501.851 1403.33 503.548 1400.84 504.933C1396.73 507.223 1396.88 510.23 1400.93 512.499C1403.53 513.951 1406.99 515.709 1411.14 517.382C1415.4 519.096 1419.87 520.519 1423.52 521.572C1429 523.151 1436.25 523.246 1441.81 521.629C1445.22 520.637 1449.46 519.248 1454.09 517.382C1459.34 515.27 1463.06 513.359 1465.55 511.907C1468.88 509.975 1469.05 507.485 1465.65 505.525C1463.25 504.133 1459.57 502.283 1454.09 500.075C1448.74 497.919 1444.24 496.457 1440.81 495.485C1435.8 494.064 1429.43 494.167 1424.51 495.547Z" opacity="0">
	<animate attributeName="opacity" begin="-8.3" dur="5s" values="1;0;0;0;0" keyTimes="0;0.25;0.5;0.75;1" repeatCount="indefinite"/>
</path>
<path d="M1427.48 429.347C1421.7 430.969 1414.22 433.329 1406.34 436.505C1399.38 439.312 1393.99 441.993 1390.06 444.184C1383.55 447.803 1383.8 452.555 1390.2 456.141C1394.3 458.437 1399.78 461.215 1406.34 463.86C1413.06 466.569 1420.13 468.819 1425.91 470.483C1434.57 472.979 1446.02 473.129 1454.81 470.572C1460.2 469.005 1466.91 466.81 1474.23 463.86C1482.51 460.522 1488.4 457.501 1492.34 455.207C1497.59 452.153 1497.86 448.217 1492.5 445.118C1488.69 442.918 1482.89 439.994 1474.23 436.505C1465.77 433.097 1458.65 430.785 1453.24 429.25C1445.31 427.003 1435.24 427.167 1427.48 429.347Z" opacity="0">
	<animate attributeName="opacity" begin="1.6" dur="5s" values="1;0;0;0;0" keyTimes="0;0.25;0.5;0.75;1" repeatCount="indefinite"/>
</path>
<path d="M1042.31 835.269C1038.81 836.253 1034.27 837.685 1029.48 839.613C1025.26 841.316 1021.99 842.943 1019.6 844.272C1015.66 846.469 1015.8 849.352 1019.69 851.529C1022.18 852.922 1025.5 854.608 1029.48 856.213C1033.56 857.857 1037.85 859.222 1041.36 860.232C1046.61 861.746 1053.56 861.838 1058.9 860.286C1062.17 859.335 1066.24 858.003 1070.68 856.213C1075.71 854.187 1079.28 852.354 1081.67 850.962C1084.86 849.108 1085.02 846.72 1081.77 844.839C1079.46 843.504 1075.94 841.73 1070.68 839.613C1065.55 837.544 1061.23 836.142 1057.94 835.21C1053.13 833.846 1047.02 833.946 1042.31 835.269Z" opacity="0">
	<animate attributeName="opacity" begin="4.5" dur="5s" values="1;0;0;0;0" keyTimes="0;0.25;0.5;0.75;1" repeatCount="indefinite"/>
</path>
<path d="M1263.94 830.235C1260.43 831.219 1255.89 832.651 1251.11 834.578C1246.88 836.282 1243.62 837.909 1241.23 839.238C1237.28 841.434 1237.43 844.318 1241.32 846.494C1243.8 847.887 1247.13 849.574 1251.11 851.179C1255.19 852.822 1259.48 854.188 1262.98 855.197C1268.24 856.712 1275.19 856.803 1280.53 855.252C1283.8 854.3 1287.87 852.969 1292.31 851.179C1297.34 849.153 1300.91 847.32 1303.3 845.927C1306.49 844.074 1306.65 841.686 1303.4 839.805C1301.09 838.47 1297.56 836.696 1292.31 834.578C1287.18 832.51 1282.86 831.107 1279.57 830.176C1274.76 828.812 1268.65 828.911 1263.94 830.235Z" opacity="0">
	<animate attributeName="opacity" begin="3.0" dur="5s" values="1;0;0;0;0" keyTimes="0;0.25;0.5;0.75;1" repeatCount="indefinite"/>
</path>
<path d="M1203.79 752.105C1200.81 752.942 1196.95 754.161 1192.88 755.801C1189.28 757.251 1186.5 758.636 1184.47 759.767C1181.11 761.636 1181.24 764.09 1184.54 765.943C1186.66 767.128 1189.49 768.563 1192.88 769.929C1196.35 771.328 1200 772.49 1202.98 773.349C1207.46 774.639 1213.37 774.716 1217.91 773.396C1220.7 772.586 1224.16 771.453 1227.94 769.929C1232.22 768.205 1235.26 766.645 1237.29 765.46C1240 763.883 1240.15 761.85 1237.38 760.25C1235.41 759.113 1232.41 757.603 1227.94 755.801C1223.57 754.041 1219.89 752.847 1217.1 752.054C1213.01 750.894 1207.8 750.978 1203.79 752.105Z" opacity="0">
	<animate attributeName="opacity" begin="5.6" dur="5s" values="1;0;0;0;0" keyTimes="0;0.25;0.5;0.75;1" repeatCount="indefinite"/>
</path>
<path d="M1411.95 674.656C1407.97 675.776 1402.8 677.407 1397.36 679.6C1392.54 681.54 1388.82 683.392 1386.11 684.905C1381.61 687.405 1381.78 690.687 1386.21 693.165C1389.04 694.75 1392.82 696.67 1397.35 698.497C1402 700.368 1406.88 701.922 1410.87 703.071C1416.85 704.795 1424.76 704.899 1430.84 703.133C1434.56 702.05 1439.19 700.534 1444.25 698.497C1449.97 696.191 1454.04 694.104 1456.76 692.519C1460.39 690.41 1460.58 687.691 1456.87 685.55C1454.24 684.03 1450.23 682.011 1444.25 679.6C1438.41 677.246 1433.49 675.65 1429.75 674.589C1424.28 673.037 1417.31 673.15 1411.95 674.656Z" opacity="0">
	<animate attributeName="opacity" begin="0.1" dur="5s" values="1;0;0;0;0" keyTimes="0;0.25;0.5;0.75;1" repeatCount="indefinite"/>
</path>
<path d="M1305.83 845.75C1303.56 846.388 1300.61 847.318 1297.51 848.568C1294.77 849.674 1292.65 850.73 1291.1 851.592C1288.54 853.018 1288.63 854.889 1291.15 856.301C1292.77 857.205 1294.92 858.299 1297.51 859.341C1300.16 860.408 1302.94 861.294 1305.21 861.949C1308.63 862.932 1313.14 862.991 1316.6 861.984C1318.72 861.367 1321.36 860.503 1324.24 859.341C1327.51 858.026 1329.82 856.837 1331.38 855.933C1333.44 854.73 1333.55 853.181 1331.44 851.96C1329.94 851.094 1327.65 849.942 1324.24 848.568C1320.91 847.226 1318.11 846.316 1315.98 845.711C1312.86 844.826 1308.89 844.891 1305.83 845.75Z" opacity="0">
	<animate attributeName="opacity" begin="6.7" dur="5s" values="1;0;0;0;0" keyTimes="0;0.25;0.5;0.75;1" repeatCount="indefinite"/>
</path>
<path d="M1501.39 836.557C1498.23 837.447 1494.12 838.742 1489.8 840.485C1485.97 842.025 1483.02 843.497 1480.86 844.699C1477.29 846.685 1477.43 849.292 1480.94 851.26C1483.19 852.52 1486.19 854.045 1489.8 855.496C1493.48 856.982 1497.36 858.217 1500.53 859.13C1505.29 860.5 1511.57 860.582 1516.39 859.179C1519.35 858.319 1523.03 857.115 1527.05 855.496C1531.59 853.664 1534.82 852.006 1536.99 850.747C1539.87 849.072 1540.02 846.912 1537.08 845.211C1534.99 844.004 1531.8 842.4 1527.05 840.485C1522.41 838.615 1518.5 837.346 1515.53 836.504C1511.18 835.271 1505.65 835.361 1501.39 836.557Z" opacity="0">
	<animate attributeName="opacity" begin="9.2" dur="5s" values="1;0;0;0;0" keyTimes="0;0.25;0.5;0.75;1" repeatCount="indefinite"/>
</path>
<g style="mix-blend-mode:overlay">
<rect width="1490" height="849" fill="url(#paint0_linear_570_536)"/>
</g>
</g>
<defs>
<linearGradient id="paint0_linear_570_536" x1="745" y1="-141.894" x2="745" y2="990.894" gradientUnits="userSpaceOnUse">
<stop offset="0.291229" stop-color="white"/>
<stop offset="0.665505" stop-color="white" stop-opacity="0"/>
</linearGradient>
<clipPath id="clip0_570_536">
<rect width="1490" height="849" fill="white"/>
</clipPath>
</defs>
</svg>
